<mxfile host="app.diagrams.net" agent="Mozilla/5.0 (Windows NT 10.0; Win64; x64) AppleWebKit/537.36 (KHTML, like Gecko) Chrome/140.0.0.0 Safari/537.36 Edg/140.0.0.0" version="28.2.1">
  <diagram id="gXywxmROWxMnH1SVIkI_" name="ページ1">
    <mxGraphModel dx="537" dy="317" grid="1" gridSize="10" guides="1" tooltips="1" connect="1" arrows="1" fold="1" page="1" pageScale="1" pageWidth="827" pageHeight="1169" math="0" shadow="0">
      <root>
        <mxCell id="0" />
        <mxCell id="1" parent="0" />
        <mxCell id="D6Z-95Ms3hUsVY-25DLd-2" value="学生" style="shape=umlActor;verticalLabelPosition=bottom;verticalAlign=top;html=1;outlineConnect=0;" vertex="1" parent="1">
          <mxGeometry x="190" y="260" width="30" height="60" as="geometry" />
        </mxCell>
        <mxCell id="D6Z-95Ms3hUsVY-25DLd-4" value="メニュー&lt;div&gt;画面&lt;/div&gt;" style="shape=umlBoundary;whiteSpace=wrap;html=1;" vertex="1" parent="1">
          <mxGeometry x="340" y="170" width="100" height="80" as="geometry" />
        </mxCell>
        <mxCell id="D6Z-95Ms3hUsVY-25DLd-5" value="" style="endArrow=classic;html=1;rounded=0;entryX=-0.017;entryY=0.499;entryDx=0;entryDy=0;entryPerimeter=0;exitX=1;exitY=0.3333333333333333;exitDx=0;exitDy=0;exitPerimeter=0;" edge="1" parent="1" source="D6Z-95Ms3hUsVY-25DLd-2" target="D6Z-95Ms3hUsVY-25DLd-4">
          <mxGeometry width="50" height="50" relative="1" as="geometry">
            <mxPoint x="240" y="230" as="sourcePoint" />
            <mxPoint x="320" y="210" as="targetPoint" />
          </mxGeometry>
        </mxCell>
        <mxCell id="D6Z-95Ms3hUsVY-25DLd-6" value="メニュー画面をクリックする" style="text;html=1;align=center;verticalAlign=middle;whiteSpace=wrap;rounded=0;" vertex="1" parent="1">
          <mxGeometry x="230" y="180" width="90" height="30" as="geometry" />
        </mxCell>
        <mxCell id="D6Z-95Ms3hUsVY-25DLd-7" value="表示（する）" style="ellipse;shape=umlControl;whiteSpace=wrap;html=1;" vertex="1" parent="1">
          <mxGeometry x="540" y="220" width="70" height="80" as="geometry" />
        </mxCell>
        <mxCell id="D6Z-95Ms3hUsVY-25DLd-8" value="" style="endArrow=classic;html=1;rounded=0;exitX=1.011;exitY=0.481;exitDx=0;exitDy=0;exitPerimeter=0;entryX=0.011;entryY=0.554;entryDx=0;entryDy=0;entryPerimeter=0;" edge="1" parent="1" source="D6Z-95Ms3hUsVY-25DLd-4" target="D6Z-95Ms3hUsVY-25DLd-7">
          <mxGeometry width="50" height="50" relative="1" as="geometry">
            <mxPoint x="490" y="280" as="sourcePoint" />
            <mxPoint x="520" y="214" as="targetPoint" />
          </mxGeometry>
        </mxCell>
        <mxCell id="D6Z-95Ms3hUsVY-25DLd-9" value="学生登録画面" style="shape=umlBoundary;whiteSpace=wrap;html=1;" vertex="1" parent="1">
          <mxGeometry x="340" y="350" width="100" height="80" as="geometry" />
        </mxCell>
        <mxCell id="D6Z-95Ms3hUsVY-25DLd-10" value="" style="endArrow=classic;html=1;rounded=0;entryX=-0.022;entryY=0.495;entryDx=0;entryDy=0;entryPerimeter=0;exitX=1;exitY=0.3333333333333333;exitDx=0;exitDy=0;exitPerimeter=0;" edge="1" parent="1" source="D6Z-95Ms3hUsVY-25DLd-2" target="D6Z-95Ms3hUsVY-25DLd-9">
          <mxGeometry width="50" height="50" relative="1" as="geometry">
            <mxPoint x="240" y="290.08" as="sourcePoint" />
            <mxPoint x="348" y="250.07999999999998" as="targetPoint" />
          </mxGeometry>
        </mxCell>
        <mxCell id="D6Z-95Ms3hUsVY-25DLd-11" value="" style="endArrow=classic;html=1;rounded=0;entryX=0.959;entryY=0.316;entryDx=0;entryDy=0;entryPerimeter=0;exitX=0.091;exitY=0.876;exitDx=0;exitDy=0;exitPerimeter=0;" edge="1" parent="1" source="D6Z-95Ms3hUsVY-25DLd-7" target="D6Z-95Ms3hUsVY-25DLd-9">
          <mxGeometry width="50" height="50" relative="1" as="geometry">
            <mxPoint x="460" y="310" as="sourcePoint" />
            <mxPoint x="578" y="420" as="targetPoint" />
          </mxGeometry>
        </mxCell>
        <mxCell id="D6Z-95Ms3hUsVY-25DLd-12" value="学生情報を入力する" style="text;html=1;align=center;verticalAlign=middle;whiteSpace=wrap;rounded=0;" vertex="1" parent="1">
          <mxGeometry x="190" y="360" width="110" height="30" as="geometry" />
        </mxCell>
        <mxCell id="D6Z-95Ms3hUsVY-25DLd-13" value="学生情報&lt;div&gt;登録&lt;/div&gt;" style="ellipse;shape=umlControl;whiteSpace=wrap;html=1;" vertex="1" parent="1">
          <mxGeometry x="570" y="350" width="70" height="80" as="geometry" />
        </mxCell>
        <mxCell id="D6Z-95Ms3hUsVY-25DLd-14" value="" style="endArrow=classic;html=1;rounded=0;entryX=-0.045;entryY=0.596;entryDx=0;entryDy=0;entryPerimeter=0;exitX=0.973;exitY=0.572;exitDx=0;exitDy=0;exitPerimeter=0;" edge="1" parent="1" source="D6Z-95Ms3hUsVY-25DLd-9" target="D6Z-95Ms3hUsVY-25DLd-13">
          <mxGeometry width="50" height="50" relative="1" as="geometry">
            <mxPoint x="550.1" y="369.92" as="sourcePoint" />
            <mxPoint x="440.1" y="454.92" as="targetPoint" />
          </mxGeometry>
        </mxCell>
        <mxCell id="D6Z-95Ms3hUsVY-25DLd-15" value="学生&lt;div&gt;オブジェクト(データ)&lt;/div&gt;" style="ellipse;shape=umlEntity;whiteSpace=wrap;html=1;" vertex="1" parent="1">
          <mxGeometry x="720" y="270" width="80" height="80" as="geometry" />
        </mxCell>
        <mxCell id="D6Z-95Ms3hUsVY-25DLd-17" value="" style="endArrow=block;startArrow=block;endFill=1;startFill=1;html=1;rounded=0;entryX=0.032;entryY=0.757;entryDx=0;entryDy=0;entryPerimeter=0;exitX=1.016;exitY=0.489;exitDx=0;exitDy=0;exitPerimeter=0;" edge="1" parent="1" source="D6Z-95Ms3hUsVY-25DLd-13" target="D6Z-95Ms3hUsVY-25DLd-15">
          <mxGeometry width="160" relative="1" as="geometry">
            <mxPoint x="550" y="370" as="sourcePoint" />
            <mxPoint x="710" y="370" as="targetPoint" />
          </mxGeometry>
        </mxCell>
        <mxCell id="D6Z-95Ms3hUsVY-25DLd-18" value="登録の成功、失敗&lt;div&gt;すでに存在する学生かも&lt;/div&gt;" style="text;html=1;align=left;verticalAlign=middle;whiteSpace=wrap;rounded=0;" vertex="1" parent="1">
          <mxGeometry x="660" y="380" width="150" height="30" as="geometry" />
        </mxCell>
        <mxCell id="D6Z-95Ms3hUsVY-25DLd-19" value="①境界オブジェクト&lt;div&gt;②制御オブジェクト&lt;/div&gt;&lt;div&gt;③&lt;span style=&quot;background-color: transparent; color: light-dark(rgb(0, 0, 0), rgb(255, 255, 255));&quot;&gt;実態オブジェクト&lt;/span&gt;&lt;/div&gt;" style="text;html=1;align=center;verticalAlign=middle;whiteSpace=wrap;rounded=0;" vertex="1" parent="1">
          <mxGeometry x="190" y="420" width="140" height="50" as="geometry" />
        </mxCell>
      </root>
    </mxGraphModel>
  </diagram>
</mxfile>
